<?xml version="1.0" encoding="UTF-8" standalone="no"?>
<svg
   width="1728"
   height="1117"
   viewBox="0 0 1728 1117"
   fill="none"
   version="1.1"
   id="svg206"
   sodipodi:docname="loop.svg"
   inkscape:version="1.4 (86a8ad7, 2024-10-11)"
   xmlns:inkscape="http://www.inkscape.org/namespaces/inkscape"
   xmlns:sodipodi="http://sodipodi.sourceforge.net/DTD/sodipodi-0.dtd"
   xmlns="http://www.w3.org/2000/svg"
   xmlns:svg="http://www.w3.org/2000/svg">
  <sodipodi:namedview
     id="namedview206"
     pagecolor="#ffffff"
     bordercolor="#999999"
     borderopacity="1"
     inkscape:showpageshadow="2"
     inkscape:pageopacity="0"
     inkscape:pagecheckerboard="0"
     inkscape:deskcolor="#d1d1d1"
     inkscape:zoom="0.37645479"
     inkscape:cx="637.52675"
     inkscape:cy="649.48038"
     inkscape:window-width="1920"
     inkscape:window-height="1051"
     inkscape:window-x="-9"
     inkscape:window-y="-9"
     inkscape:window-maximized="1"
     inkscape:current-layer="svg206" />
  <path
     opacity="0.0144928"
     d="m 1587.23,1099.65 c 9.06,4.8 20.2,3.04 27.32,-4.33 l 226.34,-234.08 c 4.21,-4.36 6.53,-10.2 6.46,-16.27 l -5.62,-466.061 c -0.06,-4.767 -1.59,-9.398 -4.4,-13.253 L 1597.19,35.549 c -5.09,-6.99 -13.66,-10.538 -22.2,-9.186 l -280.45,44.419 c -8.54,1.352 -15.6,7.377 -18.27,15.596 l -126.39,388.159 c -1.47,4.533 -1.51,9.413 -0.09,13.964 l 138.68,444.989 c 1.81,5.79 5.82,10.63 11.18,13.47 z"
     stroke="url(#paint0_linear_3_1138)"
     stroke-width="4"
     id="path1"
     style="stroke:url(#paint0_linear_3_1138)" />
  <path
     opacity="0.0289855"
     d="m 1536.08,1098.16 c 8.78,5.24 19.96,4.07 27.45,-2.89 l 236.92,-219.94 c 4.45,-4.13 7.08,-9.86 7.33,-15.92 l 18.83,-461.434 c 0.19,-4.778 -1.11,-9.498 -3.72,-13.503 L 1601.81,45.496 c -4.72,-7.231 -13.08,-11.212 -21.67,-10.309 l -280.71,29.504 c -8.59,0.902 -15.94,6.536 -19.05,14.589 L 1134.6,456.815 c -1.72,4.461 -2.01,9.348 -0.82,13.98 l 114.35,447.435 c 1.5,5.88 5.27,10.93 10.48,14.04 z"
     stroke="url(#paint1_linear_3_1138)"
     stroke-width="4"
     id="path2"
     style="stroke:url(#paint1_linear_3_1138)" />
  <path
     opacity="0.0434783"
     d="m 1485.32,1095.12 c 8.48,5.67 19.67,5.08 27.51,-1.44 l 246.64,-205.35 c 4.67,-3.89 7.62,-9.48 8.18,-15.53 l 42.78,-455.529 c 0.45,-4.775 -0.61,-9.571 -3.02,-13.716 L 1605.66,56.788 c -4.34,-7.452 -12.47,-11.853 -21.08,-11.402 L 1304.39,60.07 c -8.61,0.451 -16.24,5.679 -19.78,13.543 l -164.4,365.956 c -1.96,4.375 -2.51,9.255 -1.56,13.957 l 90.15,448.564 c 1.2,5.96 4.71,11.2 9.76,14.58 z"
     stroke="url(#paint2_linear_3_1138)"
     stroke-width="4"
     id="path3"
     style="stroke:url(#paint2_linear_3_1138)" />
  <path
     opacity="0.057971"
     d="m 1435.04,1090.56 c 8.15,6.08 19.33,6.08 27.48,0 l 255.5,-190.34 c 4.88,-3.64 8.13,-9.07 9.01,-15.09 l 66.16,-448.393 c 0.7,-4.76 -0.1,-9.62 -2.31,-13.896 L 1608.67,69.37 c -3.95,-7.653 -11.84,-12.461 -20.45,-12.461 h -278.88 c -8.61,0 -16.5,4.808 -20.44,12.461 l -182.22,353.471 c -2.2,4.276 -3.01,9.136 -2.31,13.896 l 66.16,448.393 c 0.89,6.02 4.13,11.45 9.01,15.09 z"
     stroke="url(#paint3_linear_3_1138)"
     stroke-width="4"
     id="path4"
     style="stroke:url(#paint3_linear_3_1138)" />
  <path
     opacity="0.0724638"
     d="m 1385.31,1084.54 c 7.82,6.46 18.94,7.04 27.39,1.43 l 263.46,-174.98 c 5.08,-3.37 8.61,-8.63 9.82,-14.6 l 88.91,-440.077 c 0.95,-4.731 0.4,-9.642 -1.59,-14.039 L 1610.77,83.184 c -3.55,-7.833 -11.17,-13.035 -19.75,-13.485 L 1314.2,55.192 c -8.58,-0.45 -16.7,3.927 -21.05,11.346 l -199.18,340.134 c -2.43,4.165 -3.5,8.991 -3.05,13.796 l 42.43,446.952 c 0.57,6.07 3.54,11.67 8.23,15.55 z"
     stroke="url(#paint4_linear_3_1138)"
     stroke-width="4"
     id="path5"
     style="stroke:url(#paint4_linear_3_1138)" />
  <path
     opacity="0.0869565"
     d="m 1336.22,1077.08 c 7.45,6.83 18.49,7.99 27.21,2.86 l 270.52,-159.31 c 5.27,-3.1 9.08,-8.16 10.6,-14.08 l 110.98,-430.609 c 1.2,-4.688 0.9,-9.638 -0.87,-14.145 L 1611.9,98.169 C 1608.76,90.177 1601.43,84.597 1592.89,83.7 L 1318.9,54.902 c -8.54,-0.898 -16.87,3.036 -21.6,10.201 l -215.25,325.999 c -2.66,4.041 -3.99,8.82 -3.78,13.657 l 19.02,444.271 c 0.26,6.1 2.93,11.85 7.44,15.98 z"
     stroke="url(#paint5_linear_3_1138)"
     stroke-width="4"
     id="path6"
     style="stroke:url(#paint5_linear_3_1138)" />
  <path
     opacity="0.101449"
     d="m 1287.83,1068.24 c 7.08,7.18 18,8.91 26.95,4.27 l 276.68,-143.38 c 5.43,-2.81 9.52,-7.68 11.35,-13.51 L 1735.1,495.564 c 1.46,-4.633 1.42,-9.609 -0.13,-14.214 L 1612.01,114.26 c -2.72,-8.13 -9.74,-14.07 -18.21,-15.412 L 1323.35,56.013 c -8.47,-1.341 -16.98,2.139 -22.09,9.03 l -230.38,311.125 c -2.89,3.903 -4.47,8.622 -4.51,13.479 l -3.99,440.373 c -0.06,6.12 2.33,12.01 6.62,16.36 z"
     stroke="url(#paint6_linear_3_1138)"
     stroke-width="4"
     id="path7"
     style="stroke:url(#paint6_linear_3_1138)" />
  <path
     opacity="0.115942"
     d="m 1240.2,1058.08 c 6.69,7.51 17.48,9.8 26.64,5.66 l 281.9,-127.25 c 5.59,-2.53 9.93,-7.17 12.08,-12.91 l 152.81,-408.46 c 1.71,-4.56 1.92,-9.55 0.61,-14.243 l -103.2,-369.486 c -2.3,-8.246 -8.99,-14.53 -17.37,-16.311 L 1327.48,58.5 c -8.37,-1.78 -17.04,1.238 -22.5,7.835 l -244.56,295.568 c -3.11,3.755 -4.94,8.399 -5.24,13.263 l -26.53,435.294 c -0.37,6.12 1.71,12.13 5.78,16.71 z"
     stroke="url(#paint7_linear_3_1138)"
     stroke-width="4"
     id="path8"
     style="stroke:url(#paint7_linear_3_1138)" />
  <path
     opacity="0.130435"
     d="m 1193.42,1046.65 c 6.28,7.81 16.9,10.65 26.24,7.03 L 1505.87,942.7 c 5.72,-2.22 10.32,-6.64 12.77,-12.26 l 172.48,-395.88 c 1.95,-4.48 2.43,-9.47 1.35,-14.24 l -83.51,-370.828 c -1.88,-8.34 -8.23,-14.95 -16.49,-17.163 L 1331.23,62.33 c -8.26,-2.212 -17.06,0.338 -22.86,6.621 l -257.74,279.39 c -3.31,3.594 -5.4,8.151 -5.95,13.009 l -48.561,429.08 c -0.69,6.1 1.085,12.22 4.931,17 z"
     stroke="url(#paint8_linear_3_1138)"
     stroke-width="4"
     id="path9"
     style="stroke:url(#paint8_linear_3_1138)" />
  <path
     opacity="0.144928"
     d="m 1147.54,1034 c 5.86,8.09 16.27,11.47 25.77,8.37 l 289.58,-94.61 c 5.85,-1.91 10.68,-6.07 13.43,-11.57 l 191.26,-382.37 c 2.2,-4.38 2.93,-9.36 2.1,-14.19 L 1605.7,168.493 c -1.45,-8.412 -7.44,-15.329 -15.56,-17.967 L 1334.52,67.471 c -8.11,-2.638 -17.03,-0.563 -23.14,5.391 l -269.91,262.649 c -3.51,3.422 -5.84,7.878 -6.65,12.717 L 964.805,769.99 c -1.006,6.06 0.456,12.28 4.061,17.25 z"
     stroke="url(#paint9_linear_3_1138)"
     stroke-width="4"
     id="path10"
     style="stroke:url(#paint9_linear_3_1138)" />
  <path
     opacity="0.15942"
     d="m 1102.61,1020.2 c 5.43,8.35 15.61,12.26 25.23,9.68 l 292.05,-78.19 c 5.94,-1.59 11,-5.5 14.04,-10.85 l 209.1,-367.98 c 2.44,-4.28 3.43,-9.23 2.84,-14.12 l -44.63,-370.42 c -1.02,-8.462 -6.64,-15.667 -14.59,-18.721 L 1337.3,73.882 c -7.96,-3.054 -16.96,-1.458 -23.38,4.148 l -281.03,245.411 c -3.7,3.238 -6.27,7.58 -7.33,12.388 L 934.721,749.21 c -1.321,6.01 -0.177,12.3 3.177,17.47 z"
     stroke="url(#paint10_linear_3_1138)"
     stroke-width="4"
     id="path11"
     style="stroke:url(#paint10_linear_3_1138)" />
  <path
     opacity="0.173913"
     d="m 1058.69,1005.31 c 4.98,8.59 14.92,13.01 24.63,10.96 L 1376.9,954.5 c 6.04,-1.27 11.31,-4.91 14.63,-10.1 L 1617.5,591.6 c 2.66,-4.16 3.92,-9.06 3.57,-13.99 l -25.54,-368.712 c -0.58,-8.49 -5.81,-15.961 -13.59,-19.423 L 1339.48,81.524 c -7.77,-3.462 -16.82,-2.348 -23.53,2.896 l -291.09,227.735 c -3.89,3.044 -6.7,7.26 -8.01,12.023 L 905.874,728.17 c -1.633,5.94 -0.81,12.3 2.284,17.63 z"
     stroke="url(#paint11_linear_3_1138)"
     stroke-width="4"
     id="path12"
     style="stroke:url(#paint11_linear_3_1138)" />
  <path
     opacity="0.188406"
     d="m 1015.84,989.4 c 4.52,8.8 14.18,13.72 23.96,12.21 L 1334,956.19 c 6.11,-0.95 11.58,-4.3 15.18,-9.32 l 241.81,-336.86 c 2.89,-4.03 4.41,-8.88 4.31,-13.83 l -6.74,-366.03 c -0.16,-8.495 -4.99,-16.212 -12.56,-20.069 L 1341.02,90.35 c -7.57,-3.857 -16.65,-3.227 -23.62,1.64 l -300.08,209.687 c -4.07,2.839 -7.1,6.915 -8.66,11.621 L 878.271,706.93 c -1.943,5.86 -1.445,12.26 1.381,17.75 z"
     stroke="url(#paint12_linear_3_1138)"
     stroke-width="4"
     id="path13"
     style="stroke:url(#paint12_linear_3_1138)" />
  <path
     opacity="0.202899"
     d="m 974.088,972.54 c 4.065,8.98 13.41,14.38 23.228,13.41 l 293.934,-29.17 c 6.15,-0.61 11.8,-3.68 15.67,-8.51 l 256.63,-320.24 c 3.11,-3.88 4.88,-8.66 5.04,-13.64 L 1580.29,252 c 0.27,-8.478 -4.15,-16.419 -11.49,-20.66 L 1341.86,100.315 c -7.35,-4.242 -16.44,-4.095 -23.64,0.381 l -307.99,191.328 c -4.23,2.626 -7.49,6.55 -9.3,11.185 L 851.911,685.57 c -2.247,5.77 -2.076,12.19 0.473,17.83 z"
     stroke="url(#paint13_linear_3_1138)"
     stroke-width="4"
     id="path14"
     style="stroke:url(#paint13_linear_3_1138)" />
  <path
     opacity="0.217391"
     d="m 933.486,954.79 c 3.595,9.16 12.611,15.01 22.435,14.57 l 292.769,-13.07 c 6.19,-0.28 12.01,-3.04 16.13,-7.67 l 270.37,-303 c 3.32,-3.72 5.34,-8.43 5.75,-13.41 l 29.75,-357.84 c 0.7,-8.44 -3.29,-16.582 -10.39,-21.195 L 1341.93,111.366 c -7.1,-4.612 -16.16,-4.948 -23.59,-0.874 l -314.8,172.724 c -4.382,2.402 -7.859,6.163 -9.91,10.715 L 826.791,664.16 c -2.546,5.65 -2.704,12.09 -0.439,17.86 z"
     stroke="url(#paint14_linear_3_1138)"
     stroke-width="4"
     id="path15"
     style="stroke:url(#paint14_linear_3_1138)" />
  <path
     opacity="0.231884"
     d="m 894.07,936.24 c 3.119,9.29 11.782,15.59 21.582,15.68 l 290.738,2.81 c 6.2,0.06 12.17,-2.39 16.55,-6.79 l 283,-285.22 c 3.53,-3.55 5.8,-8.17 6.47,-13.13 l 47.36,-352.41 c 1.12,-8.379 -2.44,-16.701 -9.28,-21.67 L 1341.2,123.453 c -6.84,-4.97 -15.85,-5.786 -23.48,-2.126 L 997.199,275.266 c -4.518,2.169 -8.203,5.755 -10.496,10.211 L 802.905,642.77 c -2.84,5.52 -3.328,11.95 -1.352,17.84 z"
     stroke="url(#paint15_linear_3_1138)"
     stroke-width="4"
     id="path16"
     style="stroke:url(#paint15_linear_3_1138)" />
  <path
     opacity="0.246377"
     d="m 855.872,916.96 c 2.637,9.4 10.927,16.11 20.674,16.74 l 287.844,18.45 c 6.21,0.4 12.31,-1.74 16.92,-5.91 L 1475.84,679.3 c 3.73,-3.38 6.25,-7.88 7.17,-12.83 l 64.48,-346.118 c 1.55,-8.297 -1.58,-16.775 -8.14,-22.086 L 1339.61,136.519 c -6.56,-5.312 -15.5,-6.604 -23.29,-3.367 L 991.168,268.185 c -4.646,1.93 -8.53,5.329 -11.06,9.677 L 780.241,621.46 c -3.127,5.37 -3.944,11.79 -2.264,17.78 z"
     stroke="url(#paint16_linear_3_1138)"
     stroke-width="4"
     id="path17"
     style="stroke:url(#paint16_linear_3_1138)" />
  <path
     opacity="0.26087"
     d="m 818.919,897.01 c 2.153,9.49 10.048,16.6 19.713,17.75 l 284.128,33.79 c 6.18,0.74 12.4,-1.06 17.24,-5 L 1444.93,695.3 c 3.92,-3.18 6.67,-7.57 7.85,-12.48 l 81.08,-339.013 c 1.96,-8.194 -0.72,-16.804 -6.98,-22.442 L 1337.12,150.507 c -6.26,-5.638 -15.1,-7.401 -23.05,-4.595 L 985.395,261.984 c -4.761,1.682 -8.837,4.883 -11.598,9.111 L 758.784,600.31 c -3.407,5.21 -4.552,11.59 -3.174,17.66 z"
     stroke="url(#paint17_linear_3_1138)"
     stroke-width="4"
     id="path18"
     style="stroke:url(#paint17_linear_3_1138)" />
  <path
     opacity="0.275362"
     d="m 783.235,876.48 c 1.667,9.56 9.149,17.04 18.703,18.71 l 279.592,48.79 c 6.15,1.07 12.47,-0.4 17.51,-4.08 l 314.2,-229.2 c 4.09,-2.99 7.08,-7.25 8.51,-12.11 l 97.12,-331.124 c 2.37,-8.071 0.14,-16.79 -5.81,-22.737 L 1333.69,165.357 c -5.95,-5.947 -14.67,-8.173 -22.74,-5.806 l -331.119,97.118 c -4.864,1.426 -9.12,4.42 -12.108,8.515 L 738.515,579.38 c -3.678,5.04 -5.149,11.36 -4.076,17.51 z"
     stroke="url(#paint18_linear_3_1138)"
     stroke-width="4"
     id="path19"
     style="stroke:url(#paint18_linear_3_1138)" />
  <path
     opacity="0.289855"
     d="m 748.839,855.45 c 1.181,9.59 8.231,17.42 17.646,19.6 l 274.285,63.41 c 6.09,1.41 12.49,0.28 17.73,-3.13 l 322.3,-209.89 c 4.27,-2.78 7.49,-6.89 9.17,-11.7 l 112.55,-322.49 c 2.77,-7.926 1,-16.73 -4.62,-22.969 l -168.62,-187.27 c -5.62,-6.239 -14.19,-8.922 -22.36,-6.999 l -332.492,78.231 c -4.953,1.165 -9.381,3.941 -12.588,7.891 L 719.413,558.73 c -3.941,4.86 -5.736,11.1 -4.972,17.31 z"
     stroke="url(#paint19_linear_3_1138)"
     stroke-width="4"
     id="path20"
     style="stroke:url(#paint19_linear_3_1138)" />
  <path
     opacity="0.304348"
     d="m 715.746,833.98 c 0.695,9.61 7.298,17.76 16.547,20.44 l 268.207,77.61 c 6.02,1.74 12.49,0.95 17.91,-2.18 l 329.26,-190.36 c 4.42,-2.55 7.87,-6.51 9.79,-11.24 l 127.37,-313.168 c 3.15,-7.762 1.84,-16.627 -3.43,-23.139 l -157.54,-194.54 c -5.27,-6.512 -13.67,-9.641 -21.92,-8.167 l -332.802,59.472 c -5.029,0.898 -9.616,3.446 -13.037,7.241 L 701.451,538.44 c -4.193,4.65 -6.308,10.81 -5.856,17.06 z"
     stroke="url(#paint20_linear_3_1138)"
     stroke-width="4"
     id="path21"
     style="stroke:url(#paint20_linear_3_1138)" />
  <path
     opacity="0.318841"
     d="m 683.966,812.17 c 0.211,9.59 6.352,18.04 15.408,21.2 l 261.414,91.35 c 5.924,2.07 12.435,1.63 18.027,-1.22 L 1313.88,752.83 c 4.57,-2.33 8.23,-6.12 10.4,-10.77 l 141.51,-303.174 c 3.54,-7.579 2.68,-16.481 -2.23,-23.247 L 1317.4,214.473 c -4.92,-6.767 -13.12,-10.331 -21.42,-9.309 l -332.067,40.898 c -5.091,0.627 -9.827,2.938 -13.454,6.566 L 684.601,518.55 c -4.437,4.44 -6.867,10.5 -6.729,16.77 z"
     stroke="url(#paint21_linear_3_1138)"
     stroke-width="4"
     id="path22"
     style="stroke:url(#paint21_linear_3_1138)" />
  <path
     opacity="0.333333"
     d="m 653.504,790.07 c -0.269,9.56 5.396,18.28 14.232,21.92 l 253.923,104.58 c 5.812,2.4 12.351,2.31 18.096,-0.24 L 1279.47,765.41 c 4.71,-2.09 8.58,-5.7 10.99,-10.25 l 154.97,-292.575 c 3.91,-7.377 3.51,-16.291 -1.04,-23.292 L 1309.87,232.154 c -4.54,-7.001 -12.52,-10.989 -20.85,-10.42 l -330.315,22.568 c -5.139,0.351 -10.011,2.417 -13.836,5.867 l -276.04,248.967 c -4.668,4.21 -7.409,10.144 -7.586,16.434 z"
     stroke="url(#paint22_linear_3_1138)"
     stroke-width="4"
     id="path23"
     style="stroke:url(#paint22_linear_3_1138)" />
  <path
     opacity="0.347826"
     d="m 624.362,767.78 c -0.745,9.49 4.433,18.46 13.024,22.56 l 245.769,117.29 c 5.684,2.71 12.231,2.97 18.114,0.73 L 1244.5,777.22 c 4.83,-1.85 8.9,-5.27 11.55,-9.71 l 167.71,-281.403 c 4.26,-7.157 4.33,-16.06 0.16,-23.275 L 1301.26,250.381 c -4.16,-7.215 -11.91,-11.613 -20.24,-11.498 l -327.552,4.538 c -5.172,0.071 -10.169,1.884 -14.184,5.146 L 654.101,480.248 c -4.888,3.971 -7.934,9.773 -8.427,16.051 z"
     stroke="url(#paint23_linear_3_1138)"
     stroke-width="4"
     id="path24"
     style="stroke:url(#paint23_linear_3_1138)" />
  <path
     opacity="0.362319"
     d="m 596.536,745.37 c -1.214,9.4 3.466,18.59 11.787,23.13 l 236.989,129.43 c 5.538,3.02 12.075,3.64 18.081,1.7 L 1209.01,788.22 c 4.95,-1.59 9.2,-4.81 12.09,-9.14 l 179.71,-269.7 c 4.61,-6.921 5.12,-15.789 1.35,-23.197 L 1291.54,269.089 c -3.77,-7.408 -11.25,-12.202 -19.56,-12.539 L 948.155,243.41 c -5.19,-0.211 -10.299,1.342 -14.494,4.405 L 640.378,461.941 c -5.097,3.72 -8.44,9.371 -9.249,15.629 z"
     stroke="url(#paint24_linear_3_1138)"
     stroke-width="4"
     id="path25"
     style="stroke:url(#paint24_linear_3_1138)" />
  <path
     opacity="0.376812"
     d="m 570.019,722.91 c -1.677,9.29 2.496,18.67 10.524,23.64 l 227.621,140.96 c 5.374,3.33 11.882,4.3 17.994,2.69 l 346.892,-91.81 c 5.04,-1.33 9.48,-4.34 12.59,-8.53 L 1376.6,532.33 c 4.94,-6.66 5.91,-15.47 2.53,-23.05 l -98.42,-221.069 c -3.38,-7.579 -10.57,-12.754 -18.83,-13.541 L 942.722,244.258 c -5.194,-0.495 -10.402,0.791 -14.768,3.646 L 627.617,444.267 c -5.291,3.46 -8.925,8.944 -10.048,15.166 z"
     stroke="url(#paint25_linear_3_1138)"
     stroke-width="4"
     id="path26"
     style="stroke:url(#paint25_linear_3_1138)" />
  <path
     opacity="0.391304"
     d="m 544.798,700.48 c -2.131,9.16 1.529,18.69 9.242,24.07 l 217.7,151.88 c 5.194,3.63 11.654,4.95 17.855,3.66 l 347.065,-72.37 c 5.13,-1.07 9.74,-3.86 13.07,-7.91 l 201.43,-244.92 c 5.26,-6.39 6.68,-15.12 3.71,-22.85 l -86.12,-224.358 c -2.97,-7.729 -9.86,-13.268 -18.05,-14.501 L 937.123,245.952 c -5.182,-0.78 -10.475,0.232 -15.003,2.87 L 615.777,427.276 c -5.474,3.188 -9.39,8.492 -10.825,14.661 z"
     stroke="url(#paint26_linear_3_1138)"
     stroke-width="4"
     id="path27"
     style="stroke:url(#paint26_linear_3_1138)" />
  <path
     opacity="0.405797"
     d="m 520.859,678.14 c -2.576,9.01 0.565,18.67 7.941,24.44 l 207.268,162.15 c 4.999,3.91 11.391,5.58 17.664,4.62 L 1099.9,816.18 c 5.2,-0.8 9.98,-3.36 13.52,-7.25 L 1324.53,577 c 5.56,-6.11 7.42,-14.73 4.87,-22.59 l -73.75,-226.975 c -2.55,-7.857 -9.12,-13.742 -17.22,-15.416 L 931.316,248.476 c -5.154,-1.067 -10.519,-0.333 -15.197,2.079 l -311.31,160.458 c -5.641,2.908 -9.83,8.017 -11.575,14.119 z"
     stroke="url(#paint27_linear_3_1138)"
     stroke-width="4"
     id="path28"
     style="stroke:url(#paint27_linear_3_1138)" />
  <path
     opacity="0.42029"
     d="m 498.18,655.98 c -3.009,8.82 -0.392,18.59 6.628,24.73 l 196.366,171.75 c 4.786,4.18 11.092,6.2 17.42,5.57 l 344.226,-34.27 c 5.26,-0.52 10.18,-2.84 13.93,-6.57 l 220,-218.6 c 5.85,-5.81 8.14,-14.3 6.01,-22.26 l -61.34,-228.926 c -2.14,-7.962 -8.37,-14.174 -16.34,-16.282 L 925.259,251.811 c -5.112,-1.352 -10.534,-0.902 -15.353,1.275 L 594.665,395.522 c -5.794,2.619 -10.247,7.519 -12.299,13.538 z"
     stroke="url(#paint28_linear_3_1138)"
     stroke-width="4"
     id="path29"
     style="stroke:url(#paint28_linear_3_1138)" />
  <path
     opacity="0.434783"
     d="m 476.739,634.05 c -3.432,8.63 -1.339,18.47 5.304,24.96 l 185.035,180.64 c 4.559,4.45 10.76,6.81 17.125,6.52 l 341.257,-15.72 c 5.31,-0.24 10.37,-2.32 14.32,-5.87 l 228.08,-204.97 c 6.11,-5.5 8.83,-13.85 7.12,-21.89 l -48.93,-230.195 c -1.71,-8.045 -7.59,-14.565 -15.41,-17.099 L 918.91,255.937 c -5.053,-1.637 -10.518,-1.474 -15.465,0.462 l -318.15,124.445 c -5.934,2.321 -10.639,6.999 -12.993,12.92 z"
     stroke="url(#paint29_linear_3_1138)"
     stroke-width="4"
     id="path30"
     style="stroke:url(#paint29_linear_3_1138)" />
  <path
     opacity="0.449275"
     d="m 456.507,612.43 c -3.84,8.41 -2.274,18.3 3.977,25.11 L 633.8,826.37 c 4.317,4.7 10.395,7.4 16.779,7.45 l 337.309,2.42 c 5.337,0.04 10.521,-1.78 14.662,-5.14 l 235.34,-191.11 c 6.37,-5.18 9.5,-13.35 8.22,-21.46 l -36.56,-230.798 c -1.28,-8.105 -6.78,-14.911 -14.44,-17.863 L 912.231,260.833 c -4.98,-1.919 -10.472,-2.047 -15.536,-0.362 l -320.05,106.544 c -6.057,2.016 -11.004,6.46 -13.656,12.267 z"
     stroke="url(#paint30_linear_3_1138)"
     stroke-width="4"
     id="path31"
     style="stroke:url(#paint30_linear_3_1138)" />
  <path
     opacity="0.463768"
     d="m 437.454,591.18 c -4.235,8.17 -3.194,18.08 2.647,25.19 l 161.256,196.29 c 4.06,4.94 9.997,7.97 16.382,8.36 l 332.404,20.11 c 5.353,0.33 10.651,-1.23 14.978,-4.4 L 1206.91,659.67 c 6.6,-4.83 10.14,-12.82 9.28,-20.96 l -24.25,-230.747 c -0.86,-8.141 -5.98,-15.215 -13.44,-18.572 L 905.184,266.474 c -4.891,-2.2 -10.397,-2.621 -15.565,-1.191 l -320.958,88.785 c -6.166,1.706 -11.343,5.902 -14.287,11.582 z"
     stroke="url(#paint31_linear_3_1138)"
     stroke-width="4"
     id="path32"
     style="stroke:url(#paint31_linear_3_1138)" />
  <path
     opacity="0.478261"
     d="m 419.545,570.36 c -4.615,7.91 -4.097,17.81 1.32,25.2 L 569.76,798.57 c 3.791,5.17 9.568,8.52 15.937,9.25 l 326.582,37.29 c 5.354,0.61 10.753,-0.68 15.255,-3.64 L 1174.95,678.62 c 6.82,-4.49 10.75,-12.26 10.32,-20.41 l -12.06,-230.055 c -0.42,-8.155 -5.14,-15.472 -12.4,-19.225 L 897.733,272.834 c -4.787,-2.476 -10.291,-3.193 -15.552,-2.025 l -320.894,71.226 c -6.259,1.389 -11.653,5.327 -14.883,10.864 z"
     stroke="url(#paint32_linear_3_1138)"
     stroke-width="4"
     id="path33"
     style="stroke:url(#paint32_linear_3_1138)" />
  <path
     opacity="0.492754"
     d="m 402.742,550.04 c -4.98,7.64 -4.98,17.49 0,25.13 l 136.28,208.98 c 3.509,5.38 9.108,9.05 15.442,10.12 l 319.884,53.91 c 5.34,0.9 10.827,-0.11 15.494,-2.86 L 1142.07,696.78 c 7.02,-4.14 11.33,-11.67 11.33,-19.82 V 448.247 c 0,-8.146 -4.31,-15.684 -11.33,-19.818 L 889.842,279.886 c -4.667,-2.748 -10.154,-3.762 -15.494,-2.861 l -319.884,53.917 c -6.334,1.068 -11.933,4.736 -15.442,10.117 z"
     stroke="url(#paint33_linear_3_1138)"
     stroke-width="4"
     id="path34"
     style="stroke:url(#paint33_linear_3_1138)" />
  <path
     opacity="0.507246"
     d="m 387.004,530.27 c -5.327,7.34 -5.84,17.13 -1.31,24.99 l 123.455,214.19 c 3.214,5.58 8.619,9.55 14.901,10.96 l 312.351,69.94 c 5.312,1.19 10.873,0.46 15.695,-2.07 L 1108.33,714.1 c 7.2,-3.77 11.87,-11.06 12.3,-19.17 l 11.88,-226.749 c 0.43,-8.115 -3.46,-15.851 -10.22,-20.353 L 881.48,287.6 c -4.531,-3.015 -9.986,-4.326 -15.393,-3.698 l -317.951,36.91 c -6.394,0.743 -12.185,4.131 -15.965,9.342 z"
     stroke="url(#paint34_linear_3_1138)"
     stroke-width="4"
     id="path35"
     style="stroke:url(#paint34_linear_3_1138)" />
  <path
     opacity="0.521739"
     d="m 372.288,511.1 c -5.657,7.03 -6.676,16.73 -2.605,24.78 l 110.463,218.64 c 2.909,5.76 8.102,10.03 14.313,11.77 l 304.028,85.33 c 5.268,1.48 10.891,1.03 15.858,-1.26 L 1073.78,730.55 c 7.36,-3.4 12.39,-10.42 13.23,-18.48 l 23.57,-224.172 c 0.84,-8.06 -2.61,-15.971 -9.11,-20.824 L 872.616,295.946 c -4.382,-3.277 -9.788,-4.884 -15.249,-4.533 l -315.125,20.253 c -6.437,0.414 -12.406,3.513 -16.448,8.54 z"
     stroke="url(#paint35_linear_3_1138)"
     stroke-width="4"
     id="path36"
     style="stroke:url(#paint35_linear_3_1138)" />
  <path
     opacity="0.536232"
     d="m 358.547,492.583 c -5.969,6.711 -7.485,16.287 -3.882,24.507 l 97.35,222.32 c 2.593,5.92 7.559,10.48 13.681,12.55 L 760.657,852 c 5.209,1.76 10.879,1.61 15.98,-0.45 L 1038.49,746.09 c 7.49,-3.02 12.85,-9.76 14.12,-17.74 l 35,-221.01 c 1.27,-7.981 -1.75,-16.042 -7.95,-21.23 L 863.22,304.891 c -4.217,-3.531 -9.56,-5.434 -15.06,-5.363 l -311.438,3.992 c -6.464,0.083 -12.595,2.882 -16.891,7.713 z"
     stroke="url(#paint36_linear_3_1138)"
     stroke-width="4"
     id="path37"
     style="stroke:url(#paint36_linear_3_1138)" />
  <path
     opacity="0.550725"
     d="m 345.732,474.771 c -6.262,6.374 -8.265,15.799 -5.137,24.169 l 84.16,225.22 c 2.268,6.07 6.991,10.9 13.006,13.31 L 722.96,851.5 c 5.134,2.05 10.836,2.19 16.062,0.38 l 263.478,-91.2 c 7.62,-2.64 13.3,-9.07 14.97,-16.96 l 46.18,-217.26 c 1.68,-7.88 -0.89,-16.07 -6.78,-21.576 L 853.266,314.402 c -4.038,-3.778 -9.302,-5.975 -14.828,-6.188 L 531.516,296.386 c -6.474,-0.25 -12.753,2.243 -17.293,6.865 z"
     stroke="url(#paint37_linear_3_1138)"
     stroke-width="4"
     id="path38"
     style="stroke:url(#paint37_linear_3_1138)" />
  <path
     opacity="0.565217"
     d="m 333.792,457.707 c -6.536,6.024 -9.014,15.275 -6.367,23.761 l 70.938,227.372 c 1.934,6.19 6.398,11.29 12.29,14.01 l 274.789,127.28 c 5.045,2.34 10.766,2.77 16.103,1.22 l 264.343,-77.06 c 7.717,-2.25 13.7,-8.36 15.78,-16.13 L 1038.73,545.2 c 2.08,-7.76 -0.04,-16.05 -5.6,-21.85 L 842.728,324.443 c -3.845,-4.016 -9.014,-6.504 -14.551,-7.002 L 526.563,290.273 c -6.467,-0.582 -12.879,1.596 -17.653,5.997 z"
     stroke="url(#paint38_linear_3_1138)"
     stroke-width="4"
     id="path39"
     style="stroke:url(#paint38_linear_3_1138)" />
  <path
     opacity="0.57971"
     d="m 322.673,441.431 c -6.789,5.663 -9.731,14.717 -7.567,23.289 l 57.727,228.75 c 1.592,6.31 5.783,11.65 11.533,14.7 l 263.785,139.75 c 4.941,2.62 10.665,3.35 16.103,2.05 L 928.713,786.9 c 7.796,-1.86 14.063,-7.64 16.539,-15.26 l 67.618,-208.12 c 2.48,-7.62 0.81,-15.99 -4.4,-22.07 L 831.584,334.981 c -3.637,-4.246 -8.696,-7.021 -14.231,-7.808 L 521.801,285.187 c -6.443,-0.915 -12.972,0.942 -17.969,5.111 z"
     stroke="url(#paint39_linear_3_1138)"
     stroke-width="4"
     id="path40"
     style="stroke:url(#paint39_linear_3_1138)" />
  <path
     opacity="0.594203"
     d="m 312.32,425.981 c -7.022,5.291 -10.412,14.123 -8.735,22.754 l 44.57,229.385 c 1.244,6.4 5.148,11.97 10.74,15.33 l 252.238,151.43 c 4.82,2.89 10.534,3.92 16.061,2.89 l 263.845,-49.28 c 7.855,-1.46 14.386,-6.9 17.25,-14.36 l 77.833,-202.77 c 2.864,-7.46 1.65,-15.87 -3.206,-22.22 L 819.813,345.977 c -3.416,-4.465 -8.35,-7.524 -13.869,-8.599 L 517.17,281.131 c -6.402,-1.247 -13.032,0.282 -18.241,4.208 z"
     stroke="url(#paint40_linear_3_1138)"
     stroke-width="4"
     id="path41"
     style="stroke:url(#paint40_linear_3_1138)" />
  <path
     opacity="0.608696"
     d="m 302.676,411.39 c -7.233,4.911 -11.057,13.499 -9.866,22.16 l 31.509,229.27 c 0.89,6.48 4.494,12.27 9.91,15.93 l 240.202,162.28 c 4.686,3.17 10.374,4.49 15.977,3.73 l 262.523,-35.72 c 7.894,-1.07 14.67,-6.16 17.91,-13.44 l 87.672,-196.91 c 3.241,-7.28 2.484,-15.71 -2,-22.3 L 807.397,357.395 c -3.183,-4.674 -7.976,-8.012 -13.464,-9.376 L 512.609,278.101 c -6.344,-1.576 -13.059,-0.379 -18.467,3.293 z"
     stroke="url(#paint41_linear_3_1138)"
     stroke-width="4"
     id="path42"
     style="stroke:url(#paint41_linear_3_1138)" />
  <path
     opacity="0.623188"
     d="m 293.683,397.69 c -7.424,4.522 -11.664,12.843 -10.959,21.507 l 18.587,228.433 c 0.531,6.53 3.822,12.52 9.047,16.47 l 227.73,172.3 c 4.536,3.43 10.183,5.06 15.851,4.57 l 260.514,-22.44 c 7.913,-0.68 14.914,-5.4 18.52,-12.47 l 97.115,-190.6 c 3.605,-7.08 3.305,-15.51 -0.795,-22.32 L 794.319,369.196 c -2.937,-4.872 -7.574,-8.483 -13.017,-10.135 L 508.058,276.094 c -6.269,-1.903 -13.052,-1.043 -18.647,2.366 z"
     stroke="url(#paint42_linear_3_1138)"
     stroke-width="4"
     id="path43"
     style="stroke:url(#paint42_linear_3_1138)" />
  <path
     opacity="0.637681"
     d="m 285.282,384.906 c -7.593,4.126 -12.232,12.161 -12.009,20.8 l 5.842,226.864 c 0.169,6.57 3.136,12.75 8.153,16.98 L 502.146,831 c 4.372,3.69 9.963,5.62 15.682,5.41 l 257.844,-9.45 c 7.911,-0.29 15.117,-4.63 19.076,-11.49 l 106.14,-183.84 c 3.958,-6.85 4.112,-15.26 0.408,-22.26 L 780.564,381.342 c -2.677,-5.058 -7.144,-8.935 -12.528,-10.875 L 503.459,275.101 c -6.178,-2.227 -13.013,-1.706 -18.783,1.43 z"
     stroke="url(#paint43_linear_3_1138)"
     stroke-width="4"
     id="path44"
     style="stroke:url(#paint43_linear_3_1138)" />
  <path
     opacity="0.652174"
     d="m 277.412,373.061 c -7.74,3.725 -12.759,11.453 -13.014,20.039 l -6.686,224.61 c -0.196,6.58 2.436,12.93 7.231,17.43 l 201.7,189.74 c 4.193,3.95 9.714,6.17 15.471,6.25 l 254.539,3.18 c 7.89,0.1 15.28,-3.85 19.577,-10.47 L 870.957,647.17 c 4.298,-6.61 4.903,-14.97 1.604,-22.14 L 766.121,393.793 c -2.407,-5.23 -6.688,-9.367 -11.998,-11.593 L 498.752,275.11 c -6.07,-2.546 -12.94,-2.369 -18.87,0.486 z"
     stroke="url(#paint44_linear_3_1138)"
     stroke-width="4"
     id="path45"
     style="stroke:url(#paint44_linear_3_1138)" />
  <path
     opacity="0.666667"
     d="m 270.011,362.173 c -7.864,3.321 -13.243,10.724 -13.97,19.23 L 237.082,603.07 c -0.562,6.57 1.726,13.07 6.282,17.84 l 188.253,197.15 c 4.001,4.19 9.436,6.71 15.218,7.07 l 250.627,15.46 c 7.848,0.48 15.401,-3.08 20.023,-9.44 l 122.858,-169.1 c 4.622,-6.36 5.674,-14.64 2.788,-21.96 l -92.15,-233.58 c -2.126,-5.389 -6.208,-9.777 -11.429,-12.288 L 493.881,276.105 c -5.946,-2.859 -12.833,-3.026 -18.911,-0.46 z"
     stroke="url(#paint45_linear_3_1138)"
     stroke-width="4"
     id="path46"
     style="stroke:url(#paint45_linear_3_1138)" />
  <path
     opacity="0.681159"
     d="m 263.02,352.26 c -7.968,2.911 -13.686,9.972 -14.878,18.371 L 217.204,588.69 c -0.929,6.55 1.005,13.18 5.309,18.2 l 174.591,203.68 c 3.794,4.43 9.128,7.25 14.923,7.89 l 246.135,27.34 c 7.789,0.86 15.482,-2.3 20.413,-8.39 L 809.092,676.24 c 4.931,-6.09 6.423,-14.27 3.957,-21.71 L 735.135,419.454 C 733.3,413.92 729.433,409.289 724.314,406.498 L 488.79,278.069 c -5.806,-3.166 -12.694,-3.68 -18.906,-1.41 z"
     stroke="url(#paint46_linear_3_1138)"
     stroke-width="4"
     id="path47"
     style="stroke:url(#paint46_linear_3_1138)" />
  <path
     opacity="0.695652"
     d="m 256.374,343.33 c -8.049,2.501 -14.084,9.205 -15.731,17.47 l -42.592,213.82 c -1.295,6.5 0.279,13.25 4.317,18.5 l 160.768,209.32 c 3.575,4.66 8.793,7.77 14.587,8.7 l 241.096,38.8 c 7.709,1.24 15.521,-1.52 20.746,-7.32 L 777.251,689.7 c 5.225,-5.8 7.148,-13.86 5.109,-21.39 L 718.577,432.585 c -1.532,-5.665 -5.172,-10.529 -10.175,-13.598 L 483.424,280.979 c -5.651,-3.466 -12.522,-4.326 -18.853,-2.358 z"
     stroke="url(#paint47_linear_3_1138)"
     stroke-width="4"
     id="path48"
     style="stroke:url(#paint47_linear_3_1138)" />
  <path
     opacity="0.710145"
     d="m 250.013,335.392 c -8.107,2.091 -14.438,8.422 -16.529,16.529 L 179.6,560.89 c -1.66,6.43 -0.455,13.27 3.304,18.75 l 146.842,214.08 c 3.342,4.87 8.43,8.27 14.209,9.49 l 235.541,49.81 c 7.611,1.61 15.52,-0.74 21.021,-6.24 L 744.871,702.42 c 5.501,-5.5 7.848,-13.41 6.239,-21.02 L 701.306,445.863 c -1.222,-5.779 -4.621,-10.867 -9.492,-14.209 L 477.731,284.812 c -5.48,-3.759 -12.318,-4.964 -18.753,-3.304 z"
     stroke="url(#paint48_linear_3_1138)"
     stroke-width="4"
     id="path49"
     style="stroke:url(#paint48_linear_3_1138)" />
  <path
     opacity="0.724638"
     d="m 243.874,328.45 c -8.144,1.68 -14.747,7.626 -17.269,15.549 L 161.82,547.52 c -2.02,6.35 -1.19,13.26 2.278,18.95 l 132.865,217.97 c 3.096,5.08 8.038,8.76 13.79,10.27 l 229.501,60.34 c 7.495,1.97 15.479,0.04 21.239,-5.15 L 712.001,714.38 c 5.759,-5.18 8.52,-12.92 7.343,-20.58 L 683.32,459.249 c -0.903,-5.878 -4.048,-11.179 -8.775,-14.788 L 471.659,289.539 c -5.294,-4.042 -12.081,-5.591 -18.605,-4.245 z"
     stroke="url(#paint49_linear_3_1138)"
     stroke-width="4"
     id="path50"
     style="stroke:url(#paint49_linear_3_1138)" />
  <path
     opacity="0.73913"
     d="m 237.897,322.504 c -8.159,1.271 -15.01,6.819 -17.95,14.536 l -75.263,197.52 c -2.378,6.24 -1.926,13.21 1.238,19.09 l 118.891,220.98 c 2.838,5.27 7.621,9.23 13.332,11.04 l 223.01,70.39 c 7.362,2.33 15.399,0.8 21.398,-4.06 L 678.692,725.56 c 5.999,-4.85 9.161,-12.4 8.419,-20.08 L 664.62,472.704 c -0.576,-5.961 -3.455,-11.462 -8.024,-15.334 L 465.16,295.132 c -5.094,-4.318 -11.814,-6.208 -18.412,-5.18 z"
     stroke="url(#paint50_linear_3_1138)"
     stroke-width="4"
     id="path51"
     style="stroke:url(#paint50_linear_3_1138)" />
  <path
     opacity="0.753623"
     d="m 232.021,317.549 c -8.153,0.866 -15.228,6.007 -18.571,13.493 L 128.16,522.03 c -2.729,6.11 -2.66,13.11 0.189,19.17 l 104.973,223.14 c 2.567,5.46 7.175,9.69 12.832,11.78 l 216.105,79.94 c 7.211,2.67 15.279,1.56 21.499,-2.96 L 644.995,735.95 c 6.22,-4.52 9.771,-11.85 9.462,-19.53 l -9.248,-230.23 c -0.243,-6.027 -2.842,-11.717 -7.239,-15.845 L 458.188,301.556 c -4.881,-4.583 -11.516,-6.811 -18.173,-6.104 z"
     stroke="url(#paint51_linear_3_1138)"
     stroke-width="4"
     id="path52"
     style="stroke:url(#paint51_linear_3_1138)" />
  <path
     opacity="0.768116"
     d="m 226.185,313.579 c -8.125,0.465 -15.4,5.189 -19.129,12.423 L 112.217,509.96 c -3.075,5.96 -3.392,12.97 -0.866,19.19 L 202.51,753.6 c 2.286,5.63 6.706,10.13 12.295,12.51 l 208.818,88.96 c 7.044,3.01 15.12,2.3 21.541,-1.87 L 610.961,745.53 c 6.422,-4.17 10.347,-11.26 10.47,-18.91 l 3.661,-226.954 c 0.098,-6.074 -2.211,-11.94 -6.423,-16.318 L 450.697,308.776 c -4.654,-4.836 -11.187,-7.399 -17.887,-7.016 z"
     stroke="url(#paint52_linear_3_1138)"
     stroke-width="4"
     id="path53"
     style="stroke:url(#paint52_linear_3_1138)" />
  <path
     opacity="0.782609"
     d="m 220.332,310.584 c -8.077,0.068 -15.526,4.369 -19.624,11.33 L 96.821,498.367 c -3.4136,5.798 -4.1172,12.803 -1.9255,19.163 l 77.5035,224.94 c 1.993,5.79 6.211,10.54 11.718,13.21 l 201.185,97.45 c 6.861,3.32 14.924,3.03 21.526,-0.78 l 169.814,-98.04 c 6.602,-3.82 10.887,-10.65 11.439,-18.26 L 604.278,513.1 c 0.443,-6.11 -1.565,-12.135 -5.579,-16.755 L 442.645,316.755 c -4.413,-5.079 -10.829,-7.971 -17.557,-7.914 z"
     stroke="url(#paint53_linear_3_1138)"
     stroke-width="4"
     id="path54"
     style="stroke:url(#paint53_linear_3_1138)" />
  <path
     opacity="0.797101"
     d="m 214.403,308.548 c -8.008,-0.321 -15.606,3.55 -20.054,10.218 L 81.9381,487.284 c -3.7432,5.612 -4.8344,12.583 -2.9847,19.066 l 64.0506,224.63 c 1.691,5.93 5.692,10.93 11.106,13.88 l 193.24,105.4 c 6.664,3.63 14.692,3.74 21.455,0.3 l 173.283,-88.3 c 6.763,-3.44 11.391,-10 12.367,-17.53 l 28.319,-218.28 c 0.794,-6.12 -0.902,-12.3 -4.705,-17.15 L 433.993,325.452 c -4.16,-5.309 -10.442,-8.524 -17.182,-8.794 z"
     stroke="url(#paint54_linear_3_1138)"
     stroke-width="4"
     id="path55"
     style="stroke:url(#paint54_linear_3_1138)" />
  <path
     opacity="0.811594"
     d="m 208.343,307.454 c -7.92,-0.703 -15.642,2.735 -20.419,9.091 L 67.533,476.729 c -4.0631,5.406 -5.5411,12.326 -4.041,18.92 l 50.85,223.521 c 1.378,6.06 5.15,11.3 10.456,14.54 L 309.82,846.48 c 6.451,3.94 14.423,4.45 21.326,1.38 l 176.205,-78.45 c 6.902,-3.08 11.855,-9.35 13.25,-16.77 l 39.993,-212.96 c 1.146,-6.11 -0.227,-12.42 -3.807,-17.5 L 424.705,334.827 c -3.897,-5.527 -10.029,-9.059 -16.765,-9.657 z"
     stroke="url(#paint55_linear_3_1138)"
     stroke-width="4"
     id="path56"
     style="stroke:url(#paint55_linear_3_1138)" />
  <path
     opacity="0.826087"
     d="m 202.097,307.282 c -7.813,-1.077 -15.632,1.925 -20.718,7.953 L 53.57,466.719 c -4.3723,5.182 -6.2353,12.029 -5.0912,18.712 L 86.4237,707.09 c 1.0567,6.17 4.5855,11.65 9.7711,15.16 l 176.5642,119.6 c 6.226,4.22 14.121,5.13 21.141,2.43 l 178.58,-68.55 c 7.02,-2.69 12.28,-8.65 14.085,-15.95 l 51.183,-207.03 c 1.503,-6.08 0.462,-12.51 -2.883,-17.8 L 414.745,344.835 c -3.622,-5.732 -9.588,-9.574 -16.305,-10.5 z"
     stroke="url(#paint56_linear_3_1138)"
     stroke-width="4"
     id="path57"
     style="stroke:url(#paint56_linear_3_1138)" />
  <path
     opacity="0.84058"
     d="m 195.613,308.007 c -7.687,-1.44 -15.579,1.124 -20.951,6.808 L 40.0127,457.27 c -4.6696,4.94 -6.9145,11.693 -6.1322,18.446 L 59.259,694.78 c 0.7267,6.27 3.9998,11.97 9.052,15.76 L 236.214,836.4 c 5.988,4.49 13.785,5.78 20.903,3.47 l 180.408,-58.62 c 7.117,-2.31 12.664,-7.94 14.87,-15.09 l 61.858,-200.52 c 1.862,-6.03 1.161,-12.56 -1.938,-18.06 L 404.083,355.43 c -3.337,-5.923 -9.122,-10.067 -15.804,-11.319 z"
     stroke="url(#paint57_linear_3_1138)"
     stroke-width="4"
     id="path58"
     style="stroke:url(#paint57_linear_3_1138)" />
  <path
     opacity="0.855072"
     d="m 188.839,309.604 c -7.543,-1.794 -15.482,0.334 -21.117,5.659 L 26.8241,448.397 c -4.954,4.681 -7.5767,11.318 -7.1608,18.121 L 32.8551,682.29 c 0.3884,6.36 3.3935,12.27 8.2997,16.32 L 200.229,830.16 c 5.738,4.75 13.418,6.42 20.61,4.49 l 181.694,-48.68 c 7.192,-1.93 13.007,-7.22 15.603,-14.2 l 71.989,-193.46 c 2.221,-5.96 1.868,-12.58 -0.972,-18.28 L 392.689,366.566 c -3.041,-6.1 -8.631,-10.536 -15.262,-12.113 z"
     stroke="url(#paint58_linear_3_1138)"
     stroke-width="4"
     id="path59"
     style="stroke:url(#paint58_linear_3_1138)" />
  <path
     opacity="0.869565"
     d="m 181.728,312.042 c -7.382,-2.135 -15.342,-0.443 -21.217,4.51 L 13.9671,440.11 c -5.22439,4.405 -8.2195,10.905 -8.1736,17.739 L 7.21642,669.67 c 0.04312,6.42 2.76798,12.53 7.51568,16.85 L 164.845,823.18 c 5.477,4.99 13.02,7.03 20.265,5.49 l 182.444,-38.78 c 7.245,-1.54 13.305,-6.47 16.281,-13.25 l 81.547,-185.91 c 2.58,-5.88 2.584,-12.57 0.012,-18.45 L 380.54,378.194 c -2.738,-6.262 -8.118,-10.981 -14.682,-12.881 z"
     stroke="url(#paint59_linear_3_1138)"
     stroke-width="4"
     id="path60"
     style="stroke:url(#paint59_linear_3_1138)" />
  <path
     opacity="0.884058"
     d="m 174.234,315.29 c -7.205,-2.465 -15.162,-1.205 -21.252,3.366 L 1.40446,432.419 c -5.47998,4.113 -8.84091,10.455 -9.16759,17.299 L -17.6549,656.94 c -0.3088,6.47 2.124,12.77 6.7009,17.36 l 141.053,141.21 c 5.207,5.21 12.595,7.62 19.871,6.47 l 182.662,-28.94 c 7.277,-1.15 13.561,-5.72 16.901,-12.28 l 90.511,-177.9 c 2.937,-5.77 3.305,-12.51 1.012,-18.57 L 367.612,390.265 c -2.426,-6.408 -7.582,-11.401 -14.065,-13.619 z"
     stroke="url(#paint60_linear_3_1138)"
     stroke-width="4"
     id="path61"
     style="stroke:url(#paint60_linear_3_1138)" />
  <path
     opacity="0.898551"
     d="m 166.312,319.312 c -7.012,-2.781 -14.942,-1.948 -21.222,2.231 L -10.9016,425.331 c -5.7196,3.806 -9.4386,9.969 -10.1395,16.803 L -41.7599,644.17 c -0.6665,6.5 1.4631,12.98 5.8571,17.82 l 131.9299,145.2 c 4.9269,5.43 12.1409,8.18 19.4269,7.41 l 182.359,-19.17 c 7.286,-0.76 13.771,-4.95 17.462,-11.28 l 98.858,-169.46 c 3.292,-5.65 4.028,-12.42 2.025,-18.64 L 353.885,402.728 c -2.106,-6.539 -7.025,-11.795 -13.411,-14.328 z"
     stroke="url(#paint61_linear_3_1138)"
     stroke-width="4"
     id="path62"
     style="stroke:url(#paint61_linear_3_1138)" />
  <path
     opacity="0.913043"
     d="m 157.922,324.072 c -6.804,-3.084 -14.682,-2.671 -21.127,1.107 l -159.7832,93.672 c -5.9424,3.483 -10.0106,9.447 -11.086,16.251 L -65.1013,631.4 c -1.0294,6.51 0.786,13.15 4.9853,18.24 L 62.6603,798.27 c 4.6385,5.62 11.6628,8.71 18.9364,8.33 l 181.5423,-9.52 c 7.274,-0.38 13.937,-4.18 17.963,-10.25 L 387.669,626.17 c 3.645,-5.49 4.756,-12.29 3.052,-18.66 L 339.345,415.531 c -1.781,-6.654 -6.45,-12.159 -12.724,-15.003 z"
     stroke="url(#paint62_linear_3_1138)"
     stroke-width="4"
     id="path63"
     style="stroke:url(#paint62_linear_3_1138)" />
  <path
     opacity="0.927536"
     d="m 149.024,329.53 c -6.582,-3.371 -14.385,-3.371 -20.967,0 l -162.9495,83.45 c -6.1474,3.148 -10.5546,8.892 -12.004,15.645 L -87.6847,618.66 c -1.3967,6.51 0.0941,13.3 4.0871,18.63 L 30.0271,788.81 c 4.3436,5.79 11.161,9.2 18.4008,9.2 H 228.653 c 7.24,0 14.057,-3.41 18.401,-9.2 L 360.679,637.29 c 3.993,-5.33 5.483,-12.12 4.087,-18.63 L 323.978,428.625 c -1.45,-6.753 -5.857,-12.497 -12.004,-15.645 z"
     stroke="url(#paint63_linear_3_1138)"
     stroke-width="4"
     id="path64"
     style="stroke:url(#paint63_linear_3_1138)" />
  <path
     opacity="0.942029"
     d="m 139.585,335.646 c -6.349,-3.643 -14.052,-4.047 -20.747,-1.087 l -165.4891,73.159 c -6.3337,2.8 -11.0687,8.305 -12.8903,14.986 L -109.518,606.01 c -1.768,6.48 -0.612,13.41 3.164,18.97 L -1.84697,778.84 c 4.0426,5.95 10.63741,9.67 17.82237,10.05 l 178.4186,9.35 c 7.185,0.37 14.132,-2.63 18.775,-8.13 L 333.186,648.02 c 4.336,-5.14 6.21,-11.91 5.13,-18.54 L 307.774,441.955 C 306.66,435.12 302.527,429.15 296.52,425.703 Z"
     stroke="url(#paint64_linear_3_1138)"
     stroke-width="4"
     id="path65"
     style="stroke:url(#paint64_linear_3_1138)" />
  <path
     opacity="0.956522"
     d="m 129.571,342.376 c -6.103,-3.899 -13.686,-4.696 -20.466,-2.151 l -167.4053,62.84 c -6.5007,2.44 -11.5511,7.687 -13.742,14.276 L -130.612,593.48 c -2.141,6.44 -1.329,13.49 2.218,19.28 l 95.4536,155.67 c 3.7366,6.09 10.0942,10.1 17.2033,10.85 L 160.4,797.79 c 7.109,0.75 14.161,-1.85 19.083,-7.03 L 305.217,658.33 c 4.673,-4.92 6.933,-11.65 6.178,-18.4 L 290.726,455.469 c -0.773,-6.9 -4.622,-13.082 -10.473,-16.821 z"
     stroke="url(#paint65_linear_3_1138)"
     stroke-width="4"
     id="path66"
     style="stroke:url(#paint65_linear_3_1138)" />
  <path
     opacity="0.971014"
     d="m 118.952,349.677 c -5.846,-4.139 -13.287,-5.318 -20.1264,-3.188 l -168.7015,52.527 c -6.6475,2.069 -11.9997,7.039 -14.5561,13.515 l -66.547,168.579 c -2.516,6.38 -2.058,13.54 1.25,19.55 l 86.494,156.97 c 3.4267,6.22 9.5334,10.5 16.5463,11.61 l 173.3947,27.47 c 7.013,1.11 14.145,-1.08 19.326,-5.94 L 276.8,668.21 c 5.001,-4.68 7.651,-11.36 7.227,-18.2 L 272.832,469.116 c -0.43,-6.949 -3.984,-13.329 -9.667,-17.352 z"
     stroke="url(#paint66_linear_3_1138)"
     stroke-width="4"
     id="path67"
     style="stroke:url(#paint66_linear_3_1138)" />
  <path
     opacity="0.985507"
     d="m 107.702,357.501 c -5.58,-4.361 -12.8582,-5.908 -19.7297,-4.194 l -169.385,42.257 c -6.7733,1.689 -12.4126,6.364 -15.3292,12.706 l -73.8921,160.68 c -2.893,6.29 -2.797,13.56 0.261,19.77 l 77.6576,157.77 c 3.1138,6.32 8.957,10.87 15.8536,12.34 L 93.346,795.01 c 6.897,1.46 14.085,-0.32 19.502,-4.83 L 247.961,677.64 c 5.322,-4.43 8.363,-11.03 8.279,-17.95 l -2.149,-176.848 c -0.084,-6.98 -3.335,-13.544 -8.835,-17.843 z"
     stroke="url(#paint67_linear_3_1138)"
     stroke-width="4"
     id="path68"
     style="stroke:url(#paint67_linear_3_1138)" />
  <path
     d="m 95.797,365.803 c -5.3054,-4.566 -12.4011,-6.467 -19.2785,-5.166 l -169.4639,32.065 c -6.8774,1.301 -12.7876,5.663 -16.0586,11.851 l -80.59,152.487 c -3.271,6.19 -3.545,13.53 -0.746,19.94 l 68.969,158.08 c 2.799,6.42 8.367,11.21 15.128,13.02 l 166.5941,44.64 c 6.7609,1.81 13.9789,0.45 19.6107,-3.71 L 218.731,686.59 c 5.632,-4.15 9.065,-10.65 9.326,-17.64 l 6.449,-172.353 c 0.262,-6.995 -2.676,-13.728 -7.981,-18.294 z"
     stroke="url(#paint68_linear_3_1138)"
     stroke-width="4"
     id="path69"
     style="stroke:url(#paint68_linear_3_1138)" />
  <defs
     id="defs206">
    <linearGradient
       id="paint0_linear_3_1138"
       x1="1602.91"
       y1="1604.24"
       x2="1419.03"
       y2="443.222"
       gradientUnits="userSpaceOnUse"
       gradientTransform="translate(0,-494)">
      <stop
         stop-color="#FF1CF7"
         id="stop69" />
      <stop
         offset="1"
         stop-color="#00F0FF"
         id="stop70" />
    </linearGradient>
    <linearGradient
       id="paint1_linear_3_1138"
       x1="1551.15"
       y1="1603.5"
       x2="1429.36"
       y2="444.766"
       gradientUnits="userSpaceOnUse"
       gradientTransform="translate(0,-494)">
      <stop
         stop-color="#FF1CF7"
         id="stop71" />
      <stop
         offset="1"
         stop-color="#00F0FF"
         id="stop72" />
    </linearGradient>
    <linearGradient
       id="paint2_linear_3_1138"
       x1="1499.74"
       y1="1601.17"
       x2="1439.31"
       y2="448.015"
       gradientUnits="userSpaceOnUse"
       gradientTransform="translate(0,-494)">
      <stop
         stop-color="#FF1CF7"
         id="stop73" />
      <stop
         offset="1"
         stop-color="#00F0FF"
         id="stop74" />
    </linearGradient>
    <linearGradient
       id="paint3_linear_3_1138"
       x1="1448.78"
       y1="1597.29"
       x2="1448.78"
       y2="452.93"
       gradientUnits="userSpaceOnUse"
       gradientTransform="translate(0,-494)">
      <stop
         stop-color="#FF1CF7"
         id="stop75" />
      <stop
         offset="1"
         stop-color="#00F0FF"
         id="stop76" />
    </linearGradient>
    <linearGradient
       id="paint4_linear_3_1138"
       x1="1398.34"
       y1="1591.9"
       x2="1457.69"
       y2="459.471"
       gradientUnits="userSpaceOnUse"
       gradientTransform="translate(0,-494)">
      <stop
         stop-color="#FF1CF7"
         id="stop77" />
      <stop
         offset="1"
         stop-color="#00F0FF"
         id="stop78" />
    </linearGradient>
    <linearGradient
       id="paint5_linear_3_1138"
       x1="1348.51"
       y1="1585.05"
       x2="1465.95"
       y2="467.59"
       gradientUnits="userSpaceOnUse"
       gradientTransform="translate(0,-494)">
      <stop
         stop-color="#FF1CF7"
         id="stop79" />
      <stop
         offset="1"
         stop-color="#00F0FF"
         id="stop80" />
    </linearGradient>
    <linearGradient
       id="paint6_linear_3_1138"
       x1="1299.34"
       y1="1576.77"
       x2="1473.49"
       y2="477.237"
       gradientUnits="userSpaceOnUse"
       gradientTransform="translate(0,-494)">
      <stop
         stop-color="#FF1CF7"
         id="stop81" />
      <stop
         offset="1"
         stop-color="#00F0FF"
         id="stop82" />
    </linearGradient>
    <linearGradient
       id="paint7_linear_3_1138"
       x1="1250.93"
       y1="1567.12"
       x2="1480.23"
       y2="488.358"
       gradientUnits="userSpaceOnUse"
       gradientTransform="translate(0,-494)">
      <stop
         stop-color="#FF1CF7"
         id="stop83" />
      <stop
         offset="1"
         stop-color="#00F0FF"
         id="stop84" />
    </linearGradient>
    <linearGradient
       id="paint8_linear_3_1138"
       x1="1203.33"
       y1="1556.15"
       x2="1486.08"
       y2="500.893"
       gradientUnits="userSpaceOnUse"
       gradientTransform="translate(0,-494)">
      <stop
         stop-color="#FF1CF7"
         id="stop85" />
      <stop
         offset="1"
         stop-color="#00F0FF"
         id="stop86" />
    </linearGradient>
    <linearGradient
       id="paint9_linear_3_1138"
       x1="1156.61"
       y1="1543.93"
       x2="1491"
       y2="514.781"
       gradientUnits="userSpaceOnUse"
       gradientTransform="translate(0,-494)">
      <stop
         stop-color="#FF1CF7"
         id="stop87" />
      <stop
         offset="1"
         stop-color="#00F0FF"
         id="stop88" />
    </linearGradient>
    <linearGradient
       id="paint10_linear_3_1138"
       x1="1110.82"
       y1="1530.51"
       x2="1494.9"
       y2="529.957"
       gradientUnits="userSpaceOnUse"
       gradientTransform="translate(0,-494)">
      <stop
         stop-color="#FF1CF7"
         id="stop89" />
      <stop
         offset="1"
         stop-color="#00F0FF"
         id="stop90" />
    </linearGradient>
    <linearGradient
       id="paint11_linear_3_1138"
       x1="1066.04"
       y1="1515.95"
       x2="1497.73"
       y2="546.351"
       gradientUnits="userSpaceOnUse"
       gradientTransform="translate(0,-494)">
      <stop
         stop-color="#FF1CF7"
         id="stop91" />
      <stop
         offset="1"
         stop-color="#00F0FF"
         id="stop92" />
    </linearGradient>
    <linearGradient
       id="paint12_linear_3_1138"
       x1="1022.3"
       y1="1500.33"
       x2="1499.44"
       y2="563.894"
       gradientUnits="userSpaceOnUse"
       gradientTransform="translate(0,-494)">
      <stop
         stop-color="#FF1CF7"
         id="stop93" />
      <stop
         offset="1"
         stop-color="#00F0FF"
         id="stop94" />
    </linearGradient>
    <linearGradient
       id="paint13_linear_3_1138"
       x1="979.658"
       y1="1483.71"
       x2="1499.96"
       y2="582.511"
       gradientUnits="userSpaceOnUse"
       gradientTransform="translate(0,-494)">
      <stop
         stop-color="#FF1CF7"
         id="stop95" />
      <stop
         offset="1"
         stop-color="#00F0FF"
         id="stop96" />
    </linearGradient>
    <linearGradient
       id="paint14_linear_3_1138"
       x1="938.158"
       y1="1466.16"
       x2="1499.27"
       y2="602.127"
       gradientUnits="userSpaceOnUse"
       gradientTransform="translate(0,-494)">
      <stop
         stop-color="#FF1CF7"
         id="stop97" />
      <stop
         offset="1"
         stop-color="#00F0FF"
         id="stop98" />
    </linearGradient>
    <linearGradient
       id="paint15_linear_3_1138"
       x1="897.837"
       y1="1447.75"
       x2="1497.3"
       y2="622.663"
       gradientUnits="userSpaceOnUse"
       gradientTransform="translate(0,-494)">
      <stop
         stop-color="#FF1CF7"
         id="stop99" />
      <stop
         offset="1"
         stop-color="#00F0FF"
         id="stop100" />
    </linearGradient>
    <linearGradient
       id="paint16_linear_3_1138"
       x1="858.732"
       y1="1428.56"
       x2="1494.02"
       y2="644.04"
       gradientUnits="userSpaceOnUse"
       gradientTransform="translate(0,-494)">
      <stop
         stop-color="#FF1CF7"
         id="stop101" />
      <stop
         offset="1"
         stop-color="#00F0FF"
         id="stop102" />
    </linearGradient>
    <linearGradient
       id="paint17_linear_3_1138"
       x1="820.873"
       y1="1408.66"
       x2="1489.41"
       y2="666.177"
       gradientUnits="userSpaceOnUse"
       gradientTransform="translate(0,-494)">
      <stop
         stop-color="#FF1CF7"
         id="stop103" />
      <stop
         offset="1"
         stop-color="#00F0FF"
         id="stop104" />
    </linearGradient>
    <linearGradient
       id="paint18_linear_3_1138"
       x1="784.285"
       y1="1388.13"
       x2="1483.43"
       y2="688.992"
       gradientUnits="userSpaceOnUse"
       gradientTransform="translate(0,-494)">
      <stop
         stop-color="#FF1CF7"
         id="stop105" />
      <stop
         offset="1"
         stop-color="#00F0FF"
         id="stop106" />
    </linearGradient>
    <linearGradient
       id="paint19_linear_3_1138"
       x1="748.991"
       y1="1367.05"
       x2="1476.06"
       y2="712.401"
       gradientUnits="userSpaceOnUse"
       gradientTransform="translate(0,-494)">
      <stop
         stop-color="#FF1CF7"
         id="stop107" />
      <stop
         offset="1"
         stop-color="#00F0FF"
         id="stop108" />
    </linearGradient>
    <linearGradient
       id="paint20_linear_3_1138"
       x1="715.009"
       y1="1345.5"
       x2="1467.28"
       y2="736.323"
       gradientUnits="userSpaceOnUse"
       gradientTransform="translate(0,-494)">
      <stop
         stop-color="#FF1CF7"
         id="stop109" />
      <stop
         offset="1"
         stop-color="#00F0FF"
         id="stop110" />
    </linearGradient>
    <linearGradient
       id="paint21_linear_3_1138"
       x1="682.348"
       y1="1323.54"
       x2="1457.07"
       y2="760.672"
       gradientUnits="userSpaceOnUse"
       gradientTransform="translate(0,-494)">
      <stop
         stop-color="#FF1CF7"
         id="stop111" />
      <stop
         offset="1"
         stop-color="#00F0FF"
         id="stop112" />
    </linearGradient>
    <linearGradient
       id="paint22_linear_3_1138"
       x1="651.019"
       y1="1301.27"
       x2="1445.44"
       y2="785.365"
       gradientUnits="userSpaceOnUse"
       gradientTransform="translate(0,-494)">
      <stop
         stop-color="#FF1CF7"
         id="stop113" />
      <stop
         offset="1"
         stop-color="#00F0FF"
         id="stop114" />
    </linearGradient>
    <linearGradient
       id="paint23_linear_3_1138"
       x1="621.024"
       y1="1278.75"
       x2="1432.37"
       y2="810.319"
       gradientUnits="userSpaceOnUse"
       gradientTransform="translate(0,-494)">
      <stop
         stop-color="#FF1CF7"
         id="stop115" />
      <stop
         offset="1"
         stop-color="#00F0FF"
         id="stop116" />
    </linearGradient>
    <linearGradient
       id="paint24_linear_3_1138"
       x1="592.363"
       y1="1256.07"
       x2="1417.87"
       y2="835.451"
       gradientUnits="userSpaceOnUse"
       gradientTransform="translate(0,-494)">
      <stop
         stop-color="#FF1CF7"
         id="stop117" />
      <stop
         offset="1"
         stop-color="#00F0FF"
         id="stop118" />
    </linearGradient>
    <linearGradient
       id="paint25_linear_3_1138"
       x1="565.03"
       y1="1233.29"
       x2="1401.94"
       y2="860.679"
       gradientUnits="userSpaceOnUse"
       gradientTransform="translate(0,-494)">
      <stop
         stop-color="#FF1CF7"
         id="stop119" />
      <stop
         offset="1"
         stop-color="#00F0FF"
         id="stop120" />
    </linearGradient>
    <linearGradient
       id="paint26_linear_3_1138"
       x1="539.015"
       y1="1210.51"
       x2="1384.59"
       y2="885.922"
       gradientUnits="userSpaceOnUse"
       gradientTransform="translate(0,-494)">
      <stop
         stop-color="#FF1CF7"
         id="stop121" />
      <stop
         offset="1"
         stop-color="#00F0FF"
         id="stop122" />
    </linearGradient>
    <linearGradient
       id="paint27_linear_3_1138"
       x1="514.305"
       y1="1187.78"
       x2="1365.84"
       y2="911.1"
       gradientUnits="userSpaceOnUse"
       gradientTransform="translate(0,-494)">
      <stop
         stop-color="#FF1CF7"
         id="stop123" />
      <stop
         offset="1"
         stop-color="#00F0FF"
         id="stop124" />
    </linearGradient>
    <linearGradient
       id="paint28_linear_3_1138"
       x1="490.881"
       y1="1165.19"
       x2="1345.71"
       y2="936.137"
       gradientUnits="userSpaceOnUse"
       gradientTransform="translate(0,-494)">
      <stop
         stop-color="#FF1CF7"
         id="stop125" />
      <stop
         offset="1"
         stop-color="#00F0FF"
         id="stop126" />
    </linearGradient>
    <linearGradient
       id="paint29_linear_3_1138"
       x1="468.721"
       y1="1142.8"
       x2="1324.22"
       y2="960.955"
       gradientUnits="userSpaceOnUse"
       gradientTransform="translate(0,-494)">
      <stop
         stop-color="#FF1CF7"
         id="stop127" />
      <stop
         offset="1"
         stop-color="#00F0FF"
         id="stop128" />
    </linearGradient>
    <linearGradient
       id="paint30_linear_3_1138"
       x1="447.801"
       y1="1120.68"
       x2="1301.4"
       y2="985.481"
       gradientUnits="userSpaceOnUse"
       gradientTransform="translate(0,-494)">
      <stop
         stop-color="#FF1CF7"
         id="stop129" />
      <stop
         offset="1"
         stop-color="#00F0FF"
         id="stop130" />
    </linearGradient>
    <linearGradient
       id="paint31_linear_3_1138"
       x1="428.09"
       y1="1098.9"
       x2="1277.28"
       y2="1009.64"
       gradientUnits="userSpaceOnUse"
       gradientTransform="translate(0,-494)">
      <stop
         stop-color="#FF1CF7"
         id="stop131" />
      <stop
         offset="1"
         stop-color="#00F0FF"
         id="stop132" />
    </linearGradient>
    <linearGradient
       id="paint32_linear_3_1138"
       x1="409.556"
       y1="1077.52"
       x2="1251.89"
       y2="1033.37"
       gradientUnits="userSpaceOnUse"
       gradientTransform="translate(0,-494)">
      <stop
         stop-color="#FF1CF7"
         id="stop133" />
      <stop
         offset="1"
         stop-color="#00F0FF"
         id="stop134" />
    </linearGradient>
    <linearGradient
       id="paint33_linear_3_1138"
       x1="392.161"
       y1="1056.6"
       x2="1225.27"
       y2="1056.6"
       gradientUnits="userSpaceOnUse"
       gradientTransform="translate(0,-494)">
      <stop
         stop-color="#FF1CF7"
         id="stop135" />
      <stop
         offset="1"
         stop-color="#00F0FF"
         id="stop136" />
    </linearGradient>
    <linearGradient
       id="paint34_linear_3_1138"
       x1="375.867"
       y1="1036.21"
       x2="1197.48"
       y2="1079.27"
       gradientUnits="userSpaceOnUse"
       gradientTransform="translate(0,-494)">
      <stop
         stop-color="#FF1CF7"
         id="stop137" />
      <stop
         offset="1"
         stop-color="#00F0FF"
         id="stop138" />
    </linearGradient>
    <linearGradient
       id="paint35_linear_3_1138"
       x1="360.631"
       y1="1016.4"
       x2="1168.54"
       y2="1101.32"
       gradientUnits="userSpaceOnUse"
       gradientTransform="translate(0,-494)">
      <stop
         stop-color="#FF1CF7"
         id="stop139" />
      <stop
         offset="1"
         stop-color="#00F0FF"
         id="stop140" />
    </linearGradient>
    <linearGradient
       id="paint36_linear_3_1138"
       x1="346.408"
       y1="997.223"
       x2="1138.52"
       y2="1122.68"
       gradientUnits="userSpaceOnUse"
       gradientTransform="translate(0,-494)">
      <stop
         stop-color="#FF1CF7"
         id="stop141" />
      <stop
         offset="1"
         stop-color="#00F0FF"
         id="stop142" />
    </linearGradient>
    <linearGradient
       id="paint37_linear_3_1138"
       x1="333.149"
       y1="978.727"
       x2="1107.46"
       y2="1143.31"
       gradientUnits="userSpaceOnUse"
       gradientTransform="translate(0,-494)">
      <stop
         stop-color="#FF1CF7"
         id="stop143" />
      <stop
         offset="1"
         stop-color="#00F0FF"
         id="stop144" />
    </linearGradient>
    <linearGradient
       id="paint38_linear_3_1138"
       x1="320.803"
       y1="960.96"
       x2="1075.42"
       y2="1163.16"
       gradientUnits="userSpaceOnUse"
       gradientTransform="translate(0,-494)">
      <stop
         stop-color="#FF1CF7"
         id="stop145" />
      <stop
         offset="1"
         stop-color="#00F0FF"
         id="stop146" />
    </linearGradient>
    <linearGradient
       id="paint39_linear_3_1138"
       x1="309.32"
       y1="943.966"
       x2="1042.45"
       y2="1182.18"
       gradientUnits="userSpaceOnUse"
       gradientTransform="translate(0,-494)">
      <stop
         stop-color="#FF1CF7"
         id="stop147" />
      <stop
         offset="1"
         stop-color="#00F0FF"
         id="stop148" />
    </linearGradient>
    <linearGradient
       id="paint40_linear_3_1138"
       x1="298.642"
       y1="927.784"
       x2="1008.62"
       y2="1200.32"
       gradientUnits="userSpaceOnUse"
       gradientTransform="translate(0,-494)">
      <stop
         stop-color="#FF1CF7"
         id="stop149" />
      <stop
         offset="1"
         stop-color="#00F0FF"
         id="stop150" />
    </linearGradient>
    <linearGradient
       id="paint41_linear_3_1138"
       x1="288.716"
       y1="912.451"
       x2="973.978"
       y2="1217.55"
       gradientUnits="userSpaceOnUse"
       gradientTransform="translate(0,-494)">
      <stop
         stop-color="#FF1CF7"
         id="stop151" />
      <stop
         offset="1"
         stop-color="#00F0FF"
         id="stop152" />
    </linearGradient>
    <linearGradient
       id="paint42_linear_3_1138"
       x1="279.481"
       y1="897.999"
       x2="938.592"
       y2="1233.83"
       gradientUnits="userSpaceOnUse"
       gradientTransform="translate(0,-494)">
      <stop
         stop-color="#FF1CF7"
         id="stop153" />
      <stop
         offset="1"
         stop-color="#00F0FF"
         id="stop154" />
    </linearGradient>
    <linearGradient
       id="paint43_linear_3_1138"
       x1="270.88"
       y1="884.457"
       x2="902.526"
       y2="1249.14"
       gradientUnits="userSpaceOnUse"
       gradientTransform="translate(0,-494)">
      <stop
         stop-color="#FF1CF7"
         id="stop155" />
      <stop
         offset="1"
         stop-color="#00F0FF"
         id="stop156" />
    </linearGradient>
    <linearGradient
       id="paint44_linear_3_1138"
       x1="262.851"
       y1="871.85"
       x2="865.844"
       y2="1263.44"
       gradientUnits="userSpaceOnUse"
       gradientTransform="translate(0,-494)">
      <stop
         stop-color="#FF1CF7"
         id="stop157" />
      <stop
         offset="1"
         stop-color="#00F0FF"
         id="stop158" />
    </linearGradient>
    <linearGradient
       id="paint45_linear_3_1138"
       x1="255.334"
       y1="860.199"
       x2="828.613"
       y2="1276.71"
       gradientUnits="userSpaceOnUse"
       gradientTransform="translate(0,-494)">
      <stop
         stop-color="#FF1CF7"
         id="stop159" />
      <stop
         offset="1"
         stop-color="#00F0FF"
         id="stop160" />
    </linearGradient>
    <linearGradient
       id="paint46_linear_3_1138"
       x1="248.266"
       y1="849.522"
       x2="790.899"
       y2="1288.94"
       gradientUnits="userSpaceOnUse"
       gradientTransform="translate(0,-494)">
      <stop
         stop-color="#FF1CF7"
         id="stop161" />
      <stop
         offset="1"
         stop-color="#00F0FF"
         id="stop162" />
    </linearGradient>
    <linearGradient
       id="paint47_linear_3_1138"
       x1="241.586"
       y1="839.832"
       x2="752.767"
       y2="1300.1"
       gradientUnits="userSpaceOnUse"
       gradientTransform="translate(0,-494)">
      <stop
         stop-color="#FF1CF7"
         id="stop163" />
      <stop
         offset="1"
         stop-color="#00F0FF"
         id="stop164" />
    </linearGradient>
    <linearGradient
       id="paint48_linear_3_1138"
       x1="235.231"
       y1="831.139"
       x2="714.287"
       y2="1310.19"
       gradientUnits="userSpaceOnUse"
       gradientTransform="translate(0,-494)">
      <stop
         stop-color="#FF1CF7"
         id="stop165" />
      <stop
         offset="1"
         stop-color="#00F0FF"
         id="stop166" />
    </linearGradient>
    <linearGradient
       id="paint49_linear_3_1138"
       x1="229.138"
       y1="823.448"
       x2="675.523"
       y2="1319.21"
       gradientUnits="userSpaceOnUse"
       gradientTransform="translate(0,-494)">
      <stop
         stop-color="#FF1CF7"
         id="stop167" />
      <stop
         offset="1"
         stop-color="#00F0FF"
         id="stop168" />
    </linearGradient>
    <linearGradient
       id="paint50_linear_3_1138"
       x1="223.246"
       y1="816.763"
       x2="636.545"
       y2="1327.14"
       gradientUnits="userSpaceOnUse"
       gradientTransform="translate(0,-494)">
      <stop
         stop-color="#FF1CF7"
         id="stop169" />
      <stop
         offset="1"
         stop-color="#00F0FF"
         id="stop170" />
    </linearGradient>
    <linearGradient
       id="paint51_linear_3_1138"
       x1="217.494"
       y1="811.081"
       x2="597.416"
       y2="1334"
       gradientUnits="userSpaceOnUse"
       gradientTransform="translate(0,-494)">
      <stop
         stop-color="#FF1CF7"
         id="stop171" />
      <stop
         offset="1"
         stop-color="#00F0FF"
         id="stop172" />
    </linearGradient>
    <linearGradient
       id="paint52_linear_3_1138"
       x1="211.82"
       y1="806.398"
       x2="558.203"
       y2="1339.78"
       gradientUnits="userSpaceOnUse"
       gradientTransform="translate(0,-494)">
      <stop
         stop-color="#FF1CF7"
         id="stop173" />
      <stop
         offset="1"
         stop-color="#00F0FF"
         id="stop174" />
    </linearGradient>
    <linearGradient
       id="paint53_linear_3_1138"
       x1="206.164"
       y1="802.704"
       x2="518.97"
       y2="1344.5"
       gradientUnits="userSpaceOnUse"
       gradientTransform="translate(0,-494)">
      <stop
         stop-color="#FF1CF7"
         id="stop175" />
      <stop
         offset="1"
         stop-color="#00F0FF"
         id="stop176" />
    </linearGradient>
    <linearGradient
       id="paint54_linear_3_1138"
       x1="200.469"
       y1="799.988"
       x2="479.781"
       y2="1348.17"
       gradientUnits="userSpaceOnUse"
       gradientTransform="translate(0,-494)">
      <stop
         stop-color="#FF1CF7"
         id="stop177" />
      <stop
         offset="1"
         stop-color="#00F0FF"
         id="stop178" />
    </linearGradient>
    <linearGradient
       id="paint55_linear_3_1138"
       x1="194.676"
       y1="798.233"
       x2="440.695"
       y2="1350.8"
       gradientUnits="userSpaceOnUse"
       gradientTransform="translate(0,-494)">
      <stop
         stop-color="#FF1CF7"
         id="stop179" />
      <stop
         offset="1"
         stop-color="#00F0FF"
         id="stop180" />
    </linearGradient>
    <linearGradient
       id="paint56_linear_3_1138"
       x1="188.73"
       y1="797.421"
       x2="401.775"
       y2="1352.42"
       gradientUnits="userSpaceOnUse"
       gradientTransform="translate(0,-494)">
      <stop
         stop-color="#FF1CF7"
         id="stop181" />
      <stop
         offset="1"
         stop-color="#00F0FF"
         id="stop182" />
    </linearGradient>
    <linearGradient
       id="paint57_linear_3_1138"
       x1="182.577"
       y1="797.53"
       x2="363.077"
       y2="1353.05"
       gradientUnits="userSpaceOnUse"
       gradientTransform="translate(0,-494)">
      <stop
         stop-color="#FF1CF7"
         id="stop183" />
      <stop
         offset="1"
         stop-color="#00F0FF"
         id="stop184" />
    </linearGradient>
    <linearGradient
       id="paint58_linear_3_1138"
       x1="176.164"
       y1="798.534"
       x2="324.658"
       y2="1352.72"
       gradientUnits="userSpaceOnUse"
       gradientTransform="translate(0,-494)">
      <stop
         stop-color="#FF1CF7"
         id="stop185" />
      <stop
         offset="1"
         stop-color="#00F0FF"
         id="stop186" />
    </linearGradient>
    <linearGradient
       id="paint59_linear_3_1138"
       x1="169.442"
       y1="800.406"
       x2="286.572"
       y2="1351.46"
       gradientUnits="userSpaceOnUse"
       gradientTransform="translate(0,-494)">
      <stop
         stop-color="#FF1CF7"
         id="stop187" />
      <stop
         offset="1"
         stop-color="#00F0FF"
         id="stop188" />
    </linearGradient>
    <linearGradient
       id="paint60_linear_3_1138"
       x1="162.363"
       y1="803.114"
       x2="248.869"
       y2="1349.29"
       gradientUnits="userSpaceOnUse"
       gradientTransform="translate(0,-494)">
      <stop
         stop-color="#FF1CF7"
         id="stop189" />
      <stop
         offset="1"
         stop-color="#00F0FF"
         id="stop190" />
    </linearGradient>
    <linearGradient
       id="paint61_linear_3_1138"
       x1="154.881"
       y1="806.626"
       x2="211.6"
       y2="1346.27"
       gradientUnits="userSpaceOnUse"
       gradientTransform="translate(0,-494)">
      <stop
         stop-color="#FF1CF7"
         id="stop191" />
      <stop
         offset="1"
         stop-color="#00F0FF"
         id="stop192" />
    </linearGradient>
    <linearGradient
       id="paint62_linear_3_1138"
       x1="146.954"
       y1="810.905"
       x2="174.809"
       y2="1342.41"
       gradientUnits="userSpaceOnUse"
       gradientTransform="translate(0,-494)">
      <stop
         stop-color="#FF1CF7"
         id="stop193" />
      <stop
         offset="1"
         stop-color="#00F0FF"
         id="stop194" />
    </linearGradient>
    <linearGradient
       id="paint63_linear_3_1138"
       x1="138.541"
       y1="815.914"
       x2="138.541"
       y2="1337.78"
       gradientUnits="userSpaceOnUse"
       gradientTransform="translate(0,-494)">
      <stop
         stop-color="#FF1CF7"
         id="stop195" />
      <stop
         offset="1"
         stop-color="#00F0FF"
         id="stop196" />
    </linearGradient>
    <linearGradient
       id="paint64_linear_3_1138"
       x1="129.604"
       y1="821.612"
       x2="102.835"
       y2="1332.4"
       gradientUnits="userSpaceOnUse"
       gradientTransform="translate(0,-494)">
      <stop
         stop-color="#FF1CF7"
         id="stop197" />
      <stop
         offset="1"
         stop-color="#00F0FF"
         id="stop198" />
    </linearGradient>
    <linearGradient
       id="paint65_linear_3_1138"
       x1="120.11"
       y1="827.958"
       x2="67.7291"
       y2="1326.33"
       gradientUnits="userSpaceOnUse"
       gradientTransform="translate(0,-494)">
      <stop
         stop-color="#FF1CF7"
         id="stop199" />
      <stop
         offset="1"
         stop-color="#00F0FF"
         id="stop200" />
    </linearGradient>
    <linearGradient
       id="paint66_linear_3_1138"
       x1="110.025"
       y1="834.907"
       x2="33.2571"
       y2="1319.6"
       gradientUnits="userSpaceOnUse"
       gradientTransform="translate(0,-494)">
      <stop
         stop-color="#FF1CF7"
         id="stop201" />
      <stop
         offset="1"
         stop-color="#00F0FF"
         id="stop202" />
    </linearGradient>
    <linearGradient
       id="paint67_linear_3_1138"
       x1="99.3229"
       y1="842.414"
       x2="-0.550114"
       y2="1312.28"
       gradientUnits="userSpaceOnUse"
       gradientTransform="translate(0,-494)">
      <stop
         stop-color="#FF1CF7"
         id="stop203" />
      <stop
         offset="1"
         stop-color="#00F0FF"
         id="stop204" />
    </linearGradient>
    <linearGradient
       id="paint68_linear_3_1138"
       x1="87.9761"
       y1="850.434"
       x2="-33.6656"
       y2="1304.41"
       gradientUnits="userSpaceOnUse"
       gradientTransform="translate(0,-494)">
      <stop
         stop-color="#FF1CF7"
         id="stop205" />
      <stop
         offset="1"
         stop-color="#00F0FF"
         id="stop206" />
    </linearGradient>
  </defs>
</svg>
